<?xml version="1.0" encoding="UTF-8" standalone="no"?>
<!-- Created with Inkscape (http://www.inkscape.org/) -->

<svg
   width="158mm"
   height="62mm"
   viewBox="0 0 158 62"
   version="1.1"
   id="svg1"
   inkscape:version="1.4 (e7c3feb1, 2024-10-09)"
   sodipodi:docname="ASE-logo.svg"
   xmlns:inkscape="http://www.inkscape.org/namespaces/inkscape"
   xmlns:sodipodi="http://sodipodi.sourceforge.net/DTD/sodipodi-0.dtd"
   xmlns="http://www.w3.org/2000/svg"
   xmlns:svg="http://www.w3.org/2000/svg">
  <sodipodi:namedview
     id="namedview1"
     pagecolor="#ffffff"
     bordercolor="#000000"
     borderopacity="0.25"
     inkscape:showpageshadow="2"
     inkscape:pageopacity="0.0"
     inkscape:pagecheckerboard="0"
     inkscape:deskcolor="#d1d1d1"
     inkscape:document-units="mm"
     inkscape:zoom="0.63795926"
     inkscape:cx="438.11575"
     inkscape:cy="322.12088"
     inkscape:window-width="1472"
     inkscape:window-height="854"
     inkscape:window-x="0"
     inkscape:window-y="37"
     inkscape:window-maximized="0"
     inkscape:current-layer="layer1" />
  <defs
     id="defs1" />
  <g
     inkscape:label="Layer 1"
     inkscape:groupmode="layer"
     id="layer1">
    <g
       id="g14"
       inkscape:label="LetterE"
       style="display:inline"
       transform="translate(-28.102958,-59.47621)">
      <path
         id="path13"
         style="display:inline;fill:#b4121b;fill-opacity:1"
         d="m 152.71109,62.194137 v 57.709653 c 3.06116,0.006 4.56844,0.0181 9.77512,0.0181 h 22.01209 l 5.2e-4,-1.75287 c 3e-4,-0.96408 0.012,-3.36238 0.0258,-5.32939 0.0137,-1.96701 -0.0197,-3.64874 -0.0744,-3.73724 -0.0772,-0.12486 -3.63865,-0.16071 -15.90084,-0.16071 h -15.8011 v -7.0776 -7.077608 h 14.14746 c 7.78107,0 14.17503,-0.04465 14.20843,-0.09922 0.0334,-0.05457 0.022,-2.301875 -0.0253,-4.994011 l -0.0863,-4.894791 -14.12214,-0.03411 c -11.15923,-0.02661 -14.12337,-0.06824 -14.12937,-0.198437 -0.0328,-0.713709 0.0184,-11.79495 0.0548,-11.83132 0.0258,-0.02577 6.91013,-0.04551 15.29829,-0.04341 11.13306,0.0028 15.29983,-0.03626 15.4311,-0.145211 0.25401,-0.210783 0.26817,-10.307295 0.0145,-10.295495 -0.091,0.0042 -9.79338,-0.01855 -21.56096,-0.05013 -4.38998,-0.01178 -6.34619,-0.0051 -9.26765,-0.0062 z" />
      <path
         style="display:inline;fill:#7ce6f3;fill-opacity:1;stroke-width:0.732367;stroke-opacity:0.982716;paint-order:markers fill stroke"
         d="m 140.62604,62.160546 12.27005,0.06615 -0.03,26.114252 -0.0361,31.498762 -12.17084,-0.0165 -0.15083,-27.431806 -0.0145,-1.473923 0.008,-3.324628 0.007,-0.883192 -0.004,-3.121952 0.0879,-1.070749 z"
         id="path11"
         sodipodi:nodetypes="cccccccccccc" />
      <path
         id="path14"
         style="display:inline;fill:#113234;fill-opacity:1;stroke-width:1.02169"
         d="m 146.6019,62.165978 -6.07972,-2.64e-4 -0.017,1.120863 -5.7e-4,1.808674 -0.001,17.534848 1.35031,-1.235584 0.0558,-13.377478 c -0.56372,-0.170409 -0.94864,-0.681884 -0.9493,-1.261422 -3e-5,-0.729731 0.60197,-1.321323 1.34462,-1.321366 0.74265,4.3e-5 1.34465,0.591635 1.34462,1.321366 -0.001,0.565834 -0.36906,1.068069 -0.91467,1.24902 l -0.009,13.410551 -2.22209,2.17351 0.005,3.150318 5.06069,-4.891445 0.0309,-11.91592 c -0.5606,-0.168416 -0.9443,-0.682255 -0.94464,-1.265039 -10e-5,-0.730321 0.59477,-1.322411 1.3286,-1.3224 0.73383,-1.1e-5 1.3287,0.592079 1.3286,1.3224 -3e-5,0.586819 -0.38868,1.103411 -0.95446,1.268656 l 0.002,0.0088 0.0117,12.143347 -5.87181,5.498472 -0.003,3.587864 c 0,0 5.44218,-6.058873 8.25775,-9.731302 l 0.70695,-1.124337 0.0682,-2.896464 c 0,0 -5e-4,-0.0061 -5.2e-4,-0.0062 -0.62396,-0.187624 -1.05173,-0.765833 -1.05213,-1.422136 -9e-5,-0.820203 0.65955,-1.485162 1.47329,-1.48518 0.81375,1.3e-5 1.47339,0.664973 1.4733,1.48518 -5e-4,0.662654 -0.43652,1.244787 -1.06867,1.426787 l 0.0326,2.89078 -0.90295,1.605353 -8.9817,10.380813 -0.002,27.601517 12.41493,0.005 0.0117,-28.184939 -2.59054,-1.95957 -0.12764,-0.07545 -1.05058,1.536858 0.0253,6.025472 -0.51263,0.895035 -0.51211,0.895036 -0.0393,7.913728 -0.0377,7.5613 c 0.5763,0.15432 0.97648,0.67073 0.97669,1.26038 0,0.7215 -0.59229,1.30638 -1.32292,1.30638 -0.73063,0 -1.32292,-0.58488 -1.32292,-1.30638 0.001,-0.59558 0.41005,-1.11501 0.99426,-1.26297 v -7.52874 -7.876518 l 0.51263,-0.96945 0.51263,-0.96945 0.0191,-5.198649 c 0,0 0.0791,-0.12473 -1.0573,1.689819 -0.47195,0.753618 -1.11655,1.730818 -1.43247,2.171961 -0.40735,0.517871 -1.16479,1.575097 -1.16479,1.575097 l -0.0599,15.72255 c 0.57046,0.15841 0.96465,0.67211 0.96479,1.25729 0,0.72149 -0.59229,1.30638 -1.32291,1.30638 -0.73063,0 -1.32292,-0.58488 -1.32292,-1.30638 0.001,-0.59793 0.41322,-1.11878 1.00046,-1.26452 l -0.045,-10.61589 -0.94723,-0.0103 -0.38964,0.37568 0.0202,6.61459 c 0.54652,0.16463 0.91802,0.64692 0.91829,1.19217 2.6e-4,0.69125 -0.5889,1.25171 -1.31568,1.2516 -0.72658,-1.6e-4 -1.31542,-0.56055 -1.31516,-1.2516 4.7e-4,-0.56103 0.39355,-1.05318 0.96169,-1.20406 l 0.0227,-6.97735 0.77773,-0.74776 1.24385,-0.0114 0.0351,-4.337201 c 0,0 5.83214,-8.504283 8.90385,-12.633854 l -0.002,-22.569105 c -0.97506,-0.0084 -6.3234,-0.0279 -6.32426,-0.02737 z m 6.32727,23.656174 -2.22002,3.219958 2.22002,1.679484 z"
         sodipodi:nodetypes="cccccccccccccccccscccccccccccscccccccccccccccccscccccccsccccsccccccccccccccccccccc" />
      <circle
         style="fill:#113234;fill-opacity:1;stroke-width:0.732367;stroke-opacity:0.982716;paint-order:markers fill stroke"
         id="path15"
         cx="142.28094"
         cy="110.68633"
         r="0.93544334" />
      <circle
         style="display:inline;fill:#113234;fill-opacity:1;stroke-width:0.732367;stroke-opacity:0.982716;paint-order:markers fill stroke"
         id="path15-2"
         cx="142.29723"
         cy="66.727722"
         r="0.93544334" />
      <circle
         style="display:inline;fill:#113234;fill-opacity:1;stroke-width:0.732367;stroke-opacity:0.982716;paint-order:markers fill stroke"
         id="path15-1"
         cx="145.9881"
         cy="68.649513"
         r="0.93544334" />
      <circle
         style="display:inline;fill:#113234;fill-opacity:1;stroke-width:0.732367;stroke-opacity:0.982716;paint-order:markers fill stroke"
         id="path15-1-5"
         cx="149.95683"
         cy="75.981277"
         r="0.93544334" />
      <circle
         style="display:inline;fill:#113234;fill-opacity:1;stroke-width:0.732367;stroke-opacity:0.982716;paint-order:markers fill stroke"
         id="path15-3"
         cx="144.38181"
         cy="114.3931"
         r="0.93544334" />
      <circle
         style="display:inline;fill:#113234;fill-opacity:1;stroke-width:0.732367;stroke-opacity:0.982716;paint-order:markers fill stroke"
         id="path15-8"
         cx="147.74249"
         cy="115.77332"
         r="0.93544334" />
    </g>
    <g
       id="g13"
       inkscape:label="LetterS"
       style="display:inline"
       transform="matrix(0.96224164,0,0,0.97156716,-23.163064,-56.952235)">
      <path
         id="path12"
         style="display:inline;opacity:1;fill:#faaf3f;fill-opacity:1"
         d="m 105.84057,70.951225 -0.0124,0.02687 c 0.61833,-0.04088 1.29445,-0.06208 2.07377,-0.06408 6.48438,-0.0165 9.70796,2.102567 10.88099,7.151501 l 0.30437,1.308964 5.92626,0.03411 5.92625,0.03462 -0.0884,-0.762227 c -0.0487,-0.419125 -0.16851,-1.148664 -0.26561,-1.621607 -0.0972,-0.472942 -0.21307,-1.09802 -0.25787,-1.389062 -1.72684,-11.220363 -13.58368,-14.552436 -18.0304,-14.719009 -0.0535,0.0026 -6.45693,9.99991 -6.45693,9.99991 z m -5.19297,10.46086 -6.186182,9.798885 c 2.830939,1.526004 6.927612,2.813904 13.328902,4.422469 10.99588,2.763128 12.81843,3.802531 13.14907,7.501351 0.31275,3.49869 -1.87385,6.05585 -6.02599,7.0466 -7.33331,1.74982 -13.50675,-0.0123 -16.431556,-4.68964 -0.345022,-0.55175 -1.003348,-2.63831 -1.099158,-3.48402 -0.158974,-1.40323 0.52312,-1.2577 -6.031673,-1.2852 -6.539998,-0.0274 -6.134803,-0.0941 -6.021854,0.99478 0.592284,5.70969 2.018181,9.16465 5.251875,12.7248 3.945617,4.26204 9.536296,5.91026 15.138096,6.59443 3.89674,0.41639 7.88879,0.15655 12.03854,-0.78342 5.03378,-1.1402 9.64371,-4.15984 12.11864,-7.93801 1.16391,-1.89933 1.35701,-2.10382 1.98127,-3.83646 0.67659,-1.87789 0.92406,-6.67927 0.44184,-9.538953 -1.0448,-6.195825 -4.77708,-9.694649 -12.8881,-12.080916 -0.76399,-0.224765 -1.56766,-0.463124 -1.78594,-0.529684 -0.21828,-0.06656 -1.52797,-0.398005 -2.91042,-0.736389 -9.40902,-2.303062 -12.50169,-3.16724 -14.06736,-4.180623 z"
         sodipodi:nodetypes="ccccccccccscccssssscsssscssssscc" />
      <path
         style="display:inline;fill:#7ce6f3;fill-opacity:1;stroke-width:0.732367;stroke-opacity:0.982716;paint-order:markers fill stroke"
         d="m 88.073176,83.59593 -0.07383,-0.264718 -0.14114,-0.65719 -0.553971,-5.597591 0.03307,-0.587044 0.694531,-3.191536 0.06526,-0.353894 1.489167,-3.17664 0.37207,-0.496094 7.061068,-3.530534 12.989389,-0.314192 -0.94258,1.926497 -0.5457,0.711068 -7.33392,3.249414 -2.447398,3.737239 0.03307,0.628386 c 0,0 -0.04868,0.178641 -0.06402,0.264964 -0.01534,0.08632 -0.02899,0.2518 -0.02899,0.2518 l -0.857828,1.707389 1.719792,4.919597 -1.050065,2.091861 -3.290756,4.737696 -2.811197,-1.5875 z"
         id="path16"
         sodipodi:nodetypes="cccccccccccccccczccccccc" />
      <path
         id="path1-7"
         style="display:inline;fill:#133338;fill-opacity:1;stroke-width:1.02648"
         d="m 99.595471,62.327979 c -2.237279,0.682866 -5.268645,2.425494 -6.989237,4.028177 -2.183225,2.033611 -2.610226,2.894929 -2.610226,2.894929 l 10.586882,0.153156 c 0,0 0.92722,-1.448034 1.4853,-2.126111 l 3.50769,0.02324 c 3.36064,0.03021 3.50751,0.01499 3.50751,0.01499 0,0 1.77259,-2.905165 3.35264,-5.24879 0.35373,-0.52467 0.46827,-1.069158 0.46827,-1.069158 -1.40774,-0.200179 -7.39746,-0.474704 -13.308829,1.329571 z M 108.659,67.89353 c 0,0 -1.54384,5.17e-4 -3.2737,5.17e-4 h -3.14503 l -1.3901,2.011247 c 0,0 -7.506763,-0.101728 -11.26029,-0.128158 0,0 -0.341281,0.433793 -0.884183,1.560112 -0.542901,1.126319 -0.596552,1.537155 -0.612366,1.611252 0.01845,3.4e-4 0.06139,-0.002 0.06139,-0.002 l 5.614299,0.02967 0.01171,-0.0031 c 0.06211,-0.588565 0.551865,-1.002293 1.143697,-1.003305 0.639559,5.9e-5 1.15801,0.51851 1.158069,1.158069 -5.9e-5,0.639559 -0.51851,1.15801 -1.158069,1.158069 -0.562613,-8.04e-4 -1.04632,-0.375524 -1.142516,-0.929853 l -5.684038,-0.0047 c 0,0 -0.06558,7.24e-4 -0.07097,0.001 -0.09427,0.09246 -0.685093,2.775086 -0.689093,3.108973 2.325899,-0.03116 8.899002,-0.03049 8.899002,-0.03049 l 0.832975,-0.906353 c 0,0 0.0084,-0.02975 0.817448,-0.0043 l 0.897741,0.02739 c 0.697185,-3.813645 5.644324,-4.368198 7.909864,-4.60211 0,0 0.2327,-0.318486 0.40972,-0.563263 0.82215,-1.136824 1.55443,-2.488737 1.55443,-2.488737 z m -11.211201,8.223788 -0.992705,0.949813 h -9.138977 c -0.12027,2.862514 0.546732,5.693514 0.588126,5.816182 h 8.727633 c 0.0087,0 0.06426,-0.0076 0.08423,-0.0093 0.09844,-0.511123 0.540486,-0.880436 1.055233,-0.8816 0.594995,4.2e-5 1.077344,0.487942 1.077454,1.089856 1.72e-4,0.602116 -0.482259,1.090331 -1.077454,1.090373 -0.512428,-0.0014 -0.953017,-0.367629 -1.053682,-0.875916 l -8.722982,0.01602 c 0.09682,0.530063 2.366663,5.56194 6.024438,7.710641 0.492702,0.289438 0.941259,0.498737 0.996839,0.465087 0.05555,-0.03369 0.425405,-0.590045 0.821655,-1.236617 0.396251,-0.646574 1.000488,-1.599393 1.342554,-2.117183 0.342064,-0.517779 0.740356,-1.153428 0.885217,-1.412317 0.144874,-0.258891 0.440409,-0.723293 0.656807,-1.032495 0.216407,-0.309203 0.393258,-0.594937 0.393258,-0.634587 0,-0.0396 0.330106,-0.573192 0.733289,-1.185974 0.403198,-0.612792 0.845478,-1.306005 0.982888,-1.540474 l 0.33745,-0.615983 c 0,0 -0.16636,-0.07655 -0.5116,-0.294039 -1.900465,-1.08535 -1.916102,-3.338559 -1.972487,-5.270996 0,0 -0.841609,-0.03382 -1.237133,-0.03049 z"
         sodipodi:nodetypes="sscccccscscscccsccccccccccccccccsccccccsccccccscssssssccscsc" />
      <circle
         style="fill:#133338;fill-opacity:1;stroke-width:0.732367;stroke-opacity:0.982716;paint-order:markers fill stroke"
         id="path10"
         cx="94.920883"
         cy="73.140381"
         r="0.70504594" />
      <circle
         style="display:inline;fill:#133338;fill-opacity:1;stroke-width:0.732367;stroke-opacity:0.982716;paint-order:markers fill stroke"
         id="path10-4"
         cx="97.780777"
         cy="83.111305"
         r="0.70504594" />
    </g>
    <g
       id="g12"
       inkscape:label="LetterA"
       style="display:inline"
       transform="matrix(-1,0,0,1,83.991213,-59.47621)">
      <path
         style="display:inline;fill:#7ce6f3;fill-opacity:1;stroke-width:0.732367;stroke-opacity:0.982716;paint-order:markers fill stroke"
         d="m 70.686568,119.95146 8.90339,0.0872 0.578804,0.008 1.62056,-0.025 -1.77052,-5.72842 -0.254071,-0.65854 -5.221752,-14.893541 -0.750676,-2.016321 -12.15608,-34.378329 -6.768255,-0.03709 c 0,0 -0.663998,8.214893 0.03307,12.36927 0.06754,0.4025 2.706919,8.685453 2.706919,8.685453 l 0.704248,2.02265 z"
         id="path6"
         sodipodi:nodetypes="ccccccccccsccc"
         sodipodi:insensitive="true" />
      <path
         id="path5"
         style="display:inline;fill:#00843f;fill-opacity:1"
         d="m 48.183105,62.308858 -0.295072,0.79375 c -0.162231,0.436563 -0.642855,1.785938 -0.642855,1.785938 l -16.401586,45.772914 -1.636075,4.36563 -1.069186,3.04012 c 0,0 -0.51319,1.59475 -0.47749,1.68775 0.0517,0.13473 1.336893,0.16176 6.313826,0.13436 l 6.248715,-0.0341 0.286287,-0.8599 c 0.405256,-1.2183 1.656707,-5.10286 2.173511,-6.74687 0.240163,-0.76398 0.71264,-2.22251 1.050065,-3.24115 l 0.613399,-1.85208 0.589628,-0.0889 c 0.32437,-0.0488 4.973098,-0.0891 10.330119,-0.0899 l 9.91537,-0.001 -2.920451,-10.170438 -14.552083,0.03101 c 0,0 0.429743,-1.569292 0.658874,-2.115633 0.118965,-0.283663 2.189033,-6.494177 2.82205,-8.466667 0.210154,-0.654844 0.430643,-1.309687 0.489893,-1.455208 0.05926,-0.145521 0.210785,-0.592006 0.33693,-0.992188 0.126145,-0.400183 0.365315,-1.114558 0.53175,-1.5875 0.166434,-0.472943 0.361519,-1.068256 0.433049,-1.322917 0.07153,-0.254662 0.422978,-1.326224 0.781348,-2.38125 0.35837,-1.055026 0.7336,-2.201002 0.83354,-2.546614 0.24545,-0.848773 0.288716,-1.117011 0.288716,-1.117011 0,0 0.01471,-8.842815 0.02859,-12.542104 z"
         sodipodi:nodetypes="ccccccscccscccccccssssssssccc" />
      <path
         id="path4"
         style="display:inline;opacity:1;mix-blend-mode:normal;fill:#133538;fill-opacity:1;stroke-width:1.01277"
         d="m 61.66342,62.301107 -9.97398,0.0088 3.196616,12.555306 c 2.503407,7.90387 2.718697,8.540564 2.718697,8.540564 0.669595,1.169377 7.963338,8.656319 7.963338,8.656319 l -0.0062,4.716508 c 0.435207,0.175982 0.719678,0.595032 0.719852,1.0604 1.48e-4,0.632954 -0.518139,1.146152 -1.157552,1.146184 -0.639413,-3.2e-5 -1.1577,-0.51323 -1.157552,-1.146184 0.0011,-0.523604 0.360581,-0.979876 0.873332,-1.108459 l 0.05633,-4.47673 c 0,0 -2.457619,-2.617879 -3.196187,-3.405993 -1.098177,-1.171483 -3.466972,-3.679362 -3.466972,-3.679362 l 4.193543,12.697933 c 0,0 0.669487,2.142017 1.004589,3.208077 0.335103,1.0661 0.856581,2.8411 1.158586,3.94395 1.420183,5.07358 3.159356,10.05621 4.86792,15.03835 h 5.084961 c 3.973901,0 5.050338,-0.0176 5.050338,-0.0176 l 0.08733,-3.21169 -1.003557,-2.06034 1.097608,-1.11569 c 0,0 -3.244013,-9.48145 -4.981608,-14.181051 l -0.251148,-0.735355 -0.03617,7.686876 c -0.03393,7.20254 -0.200554,8.84426 -0.165365,9.41493 0.483388,0.14927 0.812669,0.59222 0.81287,1.09347 -1.38e-4,0.63275 -0.518342,1.14564 -1.157552,1.14567 -0.63921,-3e-5 -1.157414,-0.51292 -1.157552,-1.14567 3.13e-4,-0.5136 0.345809,-0.96426 0.845427,-1.10277 0.09332,-0.77331 0.104013,-2.85761 0.10697,-9.47281 l 0.0047,-9.624742 z m -1.874821,4.052982 c 0.639209,3.2e-5 1.157412,0.512915 1.157552,1.145667 -0.0011,0.491785 -0.319025,0.928057 -0.790133,1.084171 v 4.098975 4.380094 l 9.870199,10.938868 0.130224,15.182536 c 0.464694,0.16053 0.776036,0.59438 0.77618,1.08159 -1.44e-4,0.63275 -0.518346,1.14563 -1.157552,1.14566 -0.639206,-3e-5 -1.157408,-0.51291 -1.157552,-1.14566 9.95e-4,-0.49285 0.320222,-0.92986 0.792717,-1.08521 -0.0083,-5.172083 -0.159164,-14.866791 -0.159164,-14.866791 l -9.699149,-10.65413 -0.06718,-4.645711 -0.06408,-4.430221 c -0.470904,-0.156291 -0.788616,-0.592522 -0.789615,-1.084171 1.4e-4,-0.632752 0.518343,-1.145635 1.157553,-1.145667 z m 20.227706,47.931961 c -0.128962,0.22333 -0.56229,0.6844 -0.6165,0.709 l 0.915189,1.75958 -0.146244,3.29179 1.613338,-0.0145 z"
         sodipodi:nodetypes="ccccccccccccccsscscccccccccccccccccccccccccccccccccccccc" />
      <ellipse
         style="fill:#133538;fill-opacity:1;stroke-width:0.732367;stroke-opacity:0.982716;paint-order:markers fill stroke"
         id="path7"
         cx="65.141243"
         cy="97.875168"
         rx="0.78134763"
         ry="0.79788411" />
      <ellipse
         style="fill:#133538;fill-opacity:1;stroke-width:0.732367;stroke-opacity:0.982716;paint-order:markers fill stroke"
         id="path8"
         cx="69.796257"
         cy="104.32024"
         rx="0.74827474"
         ry="0.74414062" />
      <ellipse
         style="fill:#133538;fill-opacity:1;stroke-width:0.732367;stroke-opacity:0.982716;paint-order:markers fill stroke"
         id="path9"
         cx="74.004784"
         cy="116.9417"
         rx="0.78134763"
         ry="0.75654298" />
    </g>
  </g>
</svg>
